# xmcd
#
# Track frame offsets: 
#        150
#        22745
#        34752
#        49897
#        66071
#        92946
#        112210
#        132320
#        147037
#        165051
#        192022
#
# Disc length: 2722 seconds
#
# Revision: 0
# Processed by: cddbd v1.5.2PL0 Copyright (c) Steve Scherf et al.
# Submitted via: ExactAudioCopy v1.2
#
DISCID=8c0aa00b
DTITLE=Taj Mahal and Keb' Mo' - TajMo
DYEAR=2017
DGENRE=Blues
TTITLE0=Don't Leave Me Here
TTITLE1=She Knows How to Rock Me
TTITLE2=All Around the World
TTITLE3=Om Sweet Om (feat. Lizz Wright)
TTITLE4=Shake Me in Your Arms
TTITLE5=That's Who I Am
TTITLE6=Diving Duck Blues
TTITLE7=Squeeze Box
TTITLE8=Ain't Nobody Talkin'
TTITLE9=Soul
TTITLE10=Waiting on the World to Change
EXTD=
EXTT0=
EXTT1=
EXTT2=
EXTT3=
EXTT4=
EXTT5=
EXTT6=
EXTT7=
EXTT8=
EXTT9=
EXTT10=
PLAYORDER=
